<svg xmlns="http://www.w3.org/2000/svg" width="24" height="16" viewBox="0 0 24 16" role="img" aria-label="United Kingdom flag">
  <rect width="24" height="16" fill="#012169"/>
  <polygon points="0,0 2.6,0 24,13.4 24,16 21.4,16 0,2.6" fill="#FFFFFF"/>
  <polygon points="24,0 21.4,0 0,13.4 0,16 2.6,16 24,2.6" fill="#FFFFFF"/>
  <polygon points="0,0 1.3,0 24,14.7 24,16 22.7,16 0,1.3" fill="#C8102E"/>
  <polygon points="24,0 22.7,0 0,14.7 0,16 1.3,16 24,1.3" fill="#C8102E"/>
  <rect x="9.5" width="5" height="16" fill="#FFFFFF"/>
  <rect y="5.5" width="24" height="5" fill="#FFFFFF"/>
  <rect x="10.4" width="3.2" height="16" fill="#C8102E"/>
  <rect y="6.4" width="24" height="3.2" fill="#C8102E"/>
</svg>
